{
    "asset" : {
        "generator" : "Khronos glTF Blender I/O v1.1.45",
        "version" : "2.0"
    },
    "scene" : 0,
    "scenes" : [
        {
            "name" : "Scene",
            "nodes" : [
                2
            ]
        }
    ],
    "nodes" : [
        {
            "mesh" : 0,
            "name" : "body",
            "translation" : [
                0,
                0,
                0.019999999552965164
            ]
        },
        {
            "mesh" : 1,
            "name" : "door",
            "translation" : [
                0.30000001192092896,
                0,
                0.25999999046325684
            ]
        },
        {
            "children" : [
                0,
                1
            ],
            "name" : "\u7a7a\u7269\u4f53"
        }
    ],
    "animations" : [
        {
            "channels" : [
                {
                    "sampler" : 0,
                    "target" : {
                        "node" : 1,
                        "path" : "rotation"
                    }
                }
            ],
            "name" : "doorAction.003",
            "samplers" : [
                {
                    "input" : 8,
                    "interpolation" : "LINEAR",
                    "output" : 9
                }
            ]
        }
    ],
    "meshes" : [
        {
            "name" : "\u7acb\u65b9\u4f53.002",
            "primitives" : [
                {
                    "attributes" : {
                        "POSITION" : 0,
                        "NORMAL" : 1,
                        "TEXCOORD_0" : 2
                    },
                    "indices" : 3
                }
            ]
        },
        {
            "name" : "\u7acb\u65b9\u4f53.003",
            "primitives" : [
                {
                    "attributes" : {
                        "POSITION" : 4,
                        "NORMAL" : 5,
                        "TEXCOORD_0" : 6
                    },
                    "indices" : 7
                }
            ]
        }
    ],
    "accessors" : [
        {
            "bufferView" : 0,
            "componentType" : 5126,
            "count" : 56,
            "max" : [
                0.30000001192092896,
                1,
                0.24390268325805664
            ],
            "min" : [
                -0.30000001192092896,
                -1,
                -0.3260984420776367
            ],
            "type" : "VEC3"
        },
        {
            "bufferView" : 1,
            "componentType" : 5126,
            "count" : 56,
            "type" : "VEC3"
        },
        {
            "bufferView" : 2,
            "componentType" : 5126,
            "count" : 56,
            "type" : "VEC2"
        },
        {
            "bufferView" : 3,
            "componentType" : 5123,
            "count" : 84,
            "type" : "SCALAR"
        },
        {
            "bufferView" : 4,
            "componentType" : 5126,
            "count" : 24,
            "max" : [
                0,
                1,
                0.03657209873199463
            ],
            "min" : [
                -0.6000000238418579,
                -1,
                0.006573081016540527
            ],
            "type" : "VEC3"
        },
        {
            "bufferView" : 5,
            "componentType" : 5126,
            "count" : 24,
            "type" : "VEC3"
        },
        {
            "bufferView" : 6,
            "componentType" : 5126,
            "count" : 24,
            "type" : "VEC2"
        },
        {
            "bufferView" : 7,
            "componentType" : 5123,
            "count" : 36,
            "type" : "SCALAR"
        },
        {
            "bufferView" : 8,
            "componentType" : 5126,
            "count" : 21,
            "max" : [
                0.8333333333333334
            ],
            "min" : [
                0
            ],
            "type" : "SCALAR"
        },
        {
            "bufferView" : 9,
            "componentType" : 5126,
            "count" : 21,
            "type" : "VEC4"
        }
    ],
    "bufferViews" : [
        {
            "buffer" : 0,
            "byteLength" : 672,
            "byteOffset" : 0
        },
        {
            "buffer" : 0,
            "byteLength" : 672,
            "byteOffset" : 672
        },
        {
            "buffer" : 0,
            "byteLength" : 448,
            "byteOffset" : 1344
        },
        {
            "buffer" : 0,
            "byteLength" : 168,
            "byteOffset" : 1792
        },
        {
            "buffer" : 0,
            "byteLength" : 288,
            "byteOffset" : 1960
        },
        {
            "buffer" : 0,
            "byteLength" : 288,
            "byteOffset" : 2248
        },
        {
            "buffer" : 0,
            "byteLength" : 192,
            "byteOffset" : 2536
        },
        {
            "buffer" : 0,
            "byteLength" : 72,
            "byteOffset" : 2728
        },
        {
            "buffer" : 0,
            "byteLength" : 84,
            "byteOffset" : 2800
        },
        {
            "buffer" : 0,
            "byteLength" : 336,
            "byteOffset" : 2884
        }
    ],
    "buffers" : [
        {
            "byteLength" : 3220,
            "uri" : "data:application/octet-stream;base64,"
        }
    ]
}
